<?xml version="1.0" encoding="UTF-8"?>
<svg version="1.1" xmlns="http://www.w3.org/2000/svg" viewBox="0 0 512 512" width="512" height="512">
<path d="M0 0 C4.20907836 4.20907836 6.57493939 8.99202418 6.75683594 14.96386719 C3.74744696 104.24240692 -32.16180464 190.29205031 -92.7578125 255.88671875 C-94.73032535 258.04924431 -96.64964575 260.23567124 -98.55859375 262.453125 C-102.59643176 267.08126789 -106.89740876 271.4194472 -111.25 275.75 C-112.00990234 276.51376953 -112.76980469 277.27753906 -113.55273438 278.06445312 C-118.30998606 282.8135797 -123.21115269 287.31277345 -128.3125 291.6875 C-129.51566758 292.7445652 -130.71751773 293.80313202 -131.91796875 294.86328125 C-139.81834035 301.7985971 -147.85424004 308.44090823 -156.3125 314.6875 C-157.31555176 315.4295166 -157.31555176 315.4295166 -158.33886719 316.18652344 C-186.54641232 336.97439683 -216.30123936 355.27004732 -247.625 371 C-248.5437793 371.46212891 -249.46255859 371.92425781 -250.40917969 372.40039062 C-257.93554737 376.12225211 -263.49231037 377.74957568 -272 375.875 C-285.28690141 370.31879126 -297.22344667 353.99331478 -307.24609375 344.02734375 C-308.13351824 343.14524294 -309.02094273 342.26314213 -309.93525887 341.35431099 C-313.66326902 337.64741853 -317.39028648 333.93953721 -321.11343288 330.22775936 C-326.40190537 324.95556279 -331.69875462 319.69210802 -337.00738567 314.44020742 C-341.22453582 310.26656882 -345.42781194 306.07913688 -349.62645149 301.88687325 C-351.40153466 300.11848286 -353.18085397 298.35433356 -354.96456718 296.59464836 C-357.45765322 294.13328373 -359.93439469 291.65649893 -362.40795898 289.17553711 C-363.50285645 288.10524765 -363.50285645 288.10524765 -364.61987305 287.01333618 C-370.13518539 281.43050424 -375.2331552 274.78211335 -375.875 266.6875 C-372.00859094 212.36883873 -304.30581542 142.723794 -267.5625 105.8125 C-266.86552002 105.11084717 -266.16854004 104.40919434 -265.45043945 103.6862793 C-260.90002543 99.14988812 -256.18613599 94.87244271 -251.3125 90.6875 C-250.21785891 89.72627424 -249.12406265 88.76408525 -248.03125 87.80078125 C-226.79157222 69.23980474 -203.28797866 53.48883567 -178.57421875 39.93359375 C-176.5893229 38.84001555 -174.62081096 37.72326268 -172.65625 36.59375 C-137.33748768 16.82820411 -35.89568693 -27.47571098 0 0 Z M-175.9375 92.125 C-186.97531518 104.90769182 -192.16085618 121.25519379 -191.1015625 138.02734375 C-188.97381549 154.58763887 -181.23297053 169.01501674 -168.3125 179.6875 C-154.21341197 189.90558907 -139.05697326 194.21813869 -121.6875 192.0625 C-106.21002762 189.22621562 -91.74198381 180.82691848 -82.40625 168.0859375 C-78.52285259 162.24438632 -75.49783054 156.35330723 -73.3125 149.6875 C-73.08691406 149.01847656 -72.86132812 148.34945312 -72.62890625 147.66015625 C-68.44002334 132.60906664 -71.3216151 116.1806559 -78.52734375 102.63671875 C-86.38993802 89.64709364 -98.26805478 79.06840723 -113.2265625 75.19140625 C-136.55496014 69.82498778 -158.86082066 74.69742999 -175.9375 92.125 Z " transform="translate(474.3125,36.3125)"/>
<path d="M0 0 C2 1 2 1 2.76196289 2.85424805 C2.9964917 3.64871338 3.23102051 4.44317871 3.47265625 5.26171875 C3.73240234 6.13376953 3.99214844 7.00582031 4.25976562 7.90429688 C4.52466797 8.82275391 4.78957031 9.74121094 5.0625 10.6875 C5.33126953 11.58662109 5.60003906 12.48574219 5.87695312 13.41210938 C11.02655094 30.9156052 10.80692175 47.27285496 2.12109375 63.59765625 C-8.43544272 82.51092998 -23.46195431 99.08905286 -38 115 C-38.90773117 116.00113974 -39.81527481 117.00244953 -40.72265625 118.00390625 C-45.4274784 123.18197052 -50.20305901 128.25210434 -55.19140625 133.16015625 C-56.94378275 134.9428114 -58.56859591 136.78360546 -60.1875 138.6875 C-63.52916607 142.55395427 -67.04680457 146.22871522 -70.625 149.875 C-71.17567139 150.44694092 -71.72634277 151.01888184 -72.29370117 151.6081543 C-75.30741314 154.64729461 -77.75415894 156.86246238 -82 158 C-85.67685613 157.92339883 -87.4909546 157.38508124 -90.43115234 155.16088867 C-94.28136488 151.11864222 -95.4776977 145.6992273 -97.1015625 140.48828125 C-97.46470551 139.36487839 -97.82784851 138.24147552 -98.20199585 137.08403015 C-99.35736498 133.49794559 -100.49130959 129.9054895 -101.625 126.3125 C-102.39445419 123.91427062 -103.16527343 121.51647874 -103.9375 119.11914062 C-105.6764545 113.7043586 -107.41306999 108.28906819 -109.10235596 102.85855103 C-109.69689614 100.96523546 -110.3093066 99.07743176 -110.94012451 97.19589233 C-111.36687469 95.8869249 -111.36687469 95.8869249 -111.80224609 94.55151367 C-112.05767181 93.79126389 -112.31309753 93.0310141 -112.57626343 92.24772644 C-113.09333151 89.50491952 -112.83707221 87.65494558 -112 85 C-109.4375 83.1484375 -109.4375 83.1484375 -106 81.375 C-104.71373648 80.68546527 -103.42998497 79.9912295 -102.1484375 79.29296875 C-101.47006836 78.92478027 -100.79169922 78.5565918 -100.09277344 78.17724609 C-93.51786926 74.47867074 -87.27918399 70.1735197 -81 66 C-80.34805664 65.56848633 -79.69611328 65.13697266 -79.02441406 64.69238281 C-63.04421581 54.0686756 -47.62580113 42.42337786 -33 30 C-32.42056641 29.50935059 -31.84113281 29.01870117 -31.24414062 28.51318359 C-24.24785057 22.57418202 -17.40638031 16.59252017 -11.00390625 10.0078125 C-7.82608372 6.82379538 -4.41341193 3.92578165 -1 1 C-0.67 0.67 -0.34 0.34 0 0 Z " transform="translate(383,323)"/>
<path d="M0 0 C-3.65199779 4.3429163 -7.4100126 8.57278422 -11.25 12.75 C-11.72332764 13.26522217 -12.19665527 13.78044434 -12.68432617 14.3112793 C-14.99201977 16.82123156 -17.30309347 19.32797427 -19.6171875 21.83203125 C-25.31843938 28.03946904 -30.76322552 34.39694357 -36 41 C-36.51578613 41.64855957 -37.03157227 42.29711914 -37.56298828 42.96533203 C-53.98301141 63.67172562 -68.87100315 85.35874498 -82.29296875 108.12890625 C-83.47579416 110.11832657 -84.71615132 112.07422698 -86 114 C-93.09016992 113.34704361 -99.65577262 111.07557407 -106.4140625 108.921875 C-107.71486005 108.50925285 -109.01567206 108.09667632 -110.3164978 107.68414307 C-113.03269323 106.82087777 -115.74722715 105.95258625 -118.4609375 105.08154297 C-121.92749048 103.97000237 -125.39989596 102.87809054 -128.87409401 101.79072189 C-131.55927449 100.94661604 -134.23988353 100.08866415 -136.91944504 99.22690582 C-138.81575819 98.62081854 -140.71664662 98.02910645 -142.61758423 97.43768311 C-153.42292304 93.9226198 -153.42292304 93.9226198 -157 89 C-158.16375372 85.58147345 -158.28527338 83.8016543 -157.07421875 80.3984375 C-154.0275438 75.40671018 -149.98210956 71.63033419 -145.8125 67.5625 C-144.98685547 66.74201172 -144.16121094 65.92152344 -143.31054688 65.07617188 C-138.91559868 60.73663673 -134.42796807 56.56514091 -129.7487793 52.53491211 C-127.38729883 50.46222919 -125.19132834 48.25055343 -123 46 C-119.55478751 42.52351478 -116.07075359 39.18708408 -112.34765625 36.01171875 C-110.50152688 34.42976097 -108.68252912 32.82801574 -106.87109375 31.20703125 C-74.85487283 2.72942191 -42.95747232 -19.84276363 0 0 Z " transform="translate(189,128)"/>
<path d="M0 0 C4.81083002 4.01211725 9.34672497 8.20595723 13.76147461 12.64794922 C14.39647888 13.28280746 15.03148315 13.91766571 15.68572998 14.57176208 C17.76031704 16.64703949 19.83135073 18.72582401 21.90234375 20.8046875 C23.34943599 22.25364705 24.79675084 23.70238432 26.24427795 25.15090942 C30.03580107 28.9462331 33.82431021 32.74455131 37.61218262 36.54351807 C41.4850689 40.42667159 45.36082152 44.30696195 49.23632812 48.1875 C56.82701408 55.78887983 64.41451649 63.39342884 72 71 C52.61668025 91.40688501 8.72888704 96.59793383 -18 98 C-20.66989439 98.04703911 -23.32934797 98.03304519 -26 98 C-25.35038497 70.45632259 -21.03595301 21.03595301 0 0 Z " transform="translate(77,363)"/>
<path d="M0 0 C7.47365646 4.43705022 12.85485318 10.76049497 15.7421875 19.0859375 C17.39130465 28.90971063 17.00153196 37.9509108 11.9375 46.69140625 C9.11185235 50.63767322 6.13861168 53.5587392 2.10546875 56.25 C1.47382813 56.68183594 0.8421875 57.11367187 0.19140625 57.55859375 C-7.68216658 61.95137859 -18.4718245 61.57031121 -27.0390625 59.484375 C-35.55265154 56.26784661 -40.57368925 51.17154367 -44.89453125 43.25 C-48.67813174 34.24277198 -48.99958005 25.92999496 -45.9375 16.671875 C-42.28219861 8.18390922 -35.22119802 1.50841093 -26.7109375 -2.01953125 C-18.07668269 -4.25892882 -8.06696034 -3.89159896 0 0 Z " transform="translate(358.89453125,139.75)"/>
</svg>
