<?xml version="1.0" encoding="UTF-8"?>
<svg version="1.1" xmlns="http://www.w3.org/2000/svg" viewBox="0 0 512 512" width="512" height="512">
<path d="M0 0 C18.8021834 0.41642856 36.23004636 9.43384544 52.55004883 17.9453125 C53.26813721 18.3151123 53.98622559 18.68491211 54.72607422 19.06591797 C58.86390778 21.25548744 62.12201945 23.68507862 65.67504883 26.7578125 C70.5975007 30.00961404 74.30311233 29.30684358 79.81762695 28.21826172 C84.04794207 27.25108565 88.25230468 26.19152925 92.45825195 25.12402344 C124.40636073 17.61671243 159.09237818 18.99390314 191.23754883 24.3203125 C192.24591797 24.48587646 193.25428711 24.65144043 194.29321289 24.82202148 C198.52441894 25.54932581 202.64465125 26.31617683 206.73754883 27.625 C213.33485992 29.64636165 213.33485992 29.64636165 219.82739258 27.94921875 C222.19839955 26.48166889 224.43003252 24.85254473 226.67114258 23.1953125 C243.65896121 10.67102892 267.7990894 -0.16254945 289.23754883 0.2578125 C290.44668945 0.27585938 291.65583008 0.29390625 292.90161133 0.3125 C293.7962207 0.33570313 294.69083008 0.35890625 295.61254883 0.3828125 C298.39872688 5.9551686 300.29473095 11.42404101 301.80004883 17.4453125 C302.04996582 18.4353125 302.04996582 18.4353125 302.30493164 19.4453125 C306.66970886 37.54972723 305.59523268 56.63213158 300.76879883 74.5078125 C300.32824265 77.47093936 300.32824265 77.47093936 302.20239258 79.8828125 C302.97711914 80.7078125 303.7518457 81.5328125 304.55004883 82.3828125 C322.20146193 102.63808312 328.8408675 128.59478724 328.86254883 154.9453125 C328.86322357 155.6800177 328.86389832 156.4147229 328.86459351 157.17169189 C328.80995565 194.73292261 319.6446141 230.14817764 292.73754883 257.5703125 C287.76680158 262.51689585 282.55933279 266.64178011 276.61254883 270.3828125 C275.90614258 270.86878906 275.19973633 271.35476563 274.47192383 271.85546875 C265.91522839 277.46519041 256.17592405 280.89252957 246.61254883 284.3828125 C245.92338379 284.63450195 245.23421875 284.88619141 244.52416992 285.14550781 C230.0870761 290.24868282 214.68877473 292.07877994 199.61254883 294.3828125 C200.08668213 295.12321777 200.56081543 295.86362305 201.04931641 296.62646484 C201.67475342 297.60566895 202.30019043 298.58487305 202.94458008 299.59375 C203.56308838 300.56103027 204.18159668 301.52831055 204.81884766 302.52490234 C215.1335054 318.95928148 216.20117011 335.71201903 216.15161133 354.6484375 C216.16154239 356.74209611 216.17349266 358.835746 216.18734741 360.92938232 C216.21941053 366.3853128 216.23007703 371.84104271 216.23419189 377.29705811 C216.2430197 386.06916795 216.27846286 394.84111603 216.32636642 403.61309052 C216.33892165 406.66483219 216.3381979 409.71636527 216.33609009 412.76812744 C216.34266814 414.63350588 216.34967395 416.49888287 216.35717773 418.36425781 C216.35305374 419.20789383 216.34892975 420.05152985 216.34468079 420.92073059 C216.37377932 425.14617008 216.49864986 428.59765195 218.61254883 432.3828125 C223.46303378 435.65688984 228.94130933 436.43013393 234.61254883 437.3828125 C234.61254883 437.7128125 234.61254883 438.0428125 234.61254883 438.3828125 C222.82105608 438.56248029 211.02938857 438.72762511 199.23754883 438.8828125 C197.88466578 438.90062838 197.88466578 438.90062838 196.50445175 438.91880417 C163.4775701 439.34925274 130.45454422 439.47118248 97.42504883 439.4453125 C96.32423225 439.44445648 95.22341568 439.44360046 94.08924103 439.44271851 C80.5969934 439.43143718 67.1047703 439.41152614 53.61254883 439.3828125 C53.61254883 439.0528125 53.61254883 438.7228125 53.61254883 438.3828125 C54.34860352 438.28484375 55.0846582 438.186875 55.84301758 438.0859375 C63.52921173 436.97675336 63.52921173 436.97675336 69.61254883 432.3828125 C70.60548692 429.40399823 70.73374667 427.46794011 70.72607422 424.3605957 C70.72599869 423.33976395 70.72592316 422.31893219 70.72584534 421.26716614 C70.72068405 420.16708725 70.71552277 419.06700836 70.71020508 417.93359375 C70.70879013 416.8058403 70.70737518 415.67808685 70.70591736 414.51615906 C70.70031353 410.90918338 70.68776036 407.30226946 70.67504883 403.6953125 C70.67003432 401.25195402 70.66547133 398.80859457 70.66137695 396.36523438 C70.65034286 390.37107263 70.63360098 384.37694698 70.61254883 378.3828125 C69.83580811 378.52356201 69.05906738 378.66431152 68.25878906 378.80932617 C60.01292232 380.20402402 52.03147149 380.73497906 43.67504883 380.6953125 C42.44592773 380.69039795 41.21680664 380.6854834 39.95043945 380.68041992 C20.04205912 380.42271054 2.02045159 374.604318 -12.63745117 360.6328125 C-19.80070056 353.08541409 -24.25228977 344.92036368 -28.32495117 335.4453125 C-34.77719978 320.43820526 -43.91697159 307.79931918 -57.38745117 298.3828125 C-59.0000995 297.18582231 -60.60417348 295.97720321 -62.19995117 294.7578125 C-63.29243164 293.93410156 -63.29243164 293.93410156 -64.40698242 293.09375 C-66.44860232 291.32998369 -67.93818972 289.65634141 -69.38745117 287.3828125 C-69.57495117 284.6328125 -69.57495117 284.6328125 -69.38745117 282.3828125 C-62.93149317 277.95586987 -55.18130133 278.54423813 -47.70776367 279.8515625 C-31.09133754 284.31092287 -17.83584993 296.43076023 -8.94995117 310.8203125 C-0.36685575 324.61048581 11.46019841 334.13930968 27.39526367 337.97045898 C31.2951699 338.69573333 35.1543044 338.7647792 39.11254883 338.7578125 C39.97968506 338.75765137 40.84682129 338.75749023 41.74023438 338.75732422 C50.14484249 338.61105001 57.59864399 336.84724564 65.61254883 334.3828125 C67.94370046 333.70831974 70.2782433 333.04634109 72.61254883 332.3828125 C72.62672852 331.72796875 72.6409082 331.073125 72.65551758 330.3984375 C73.33068348 317.4790467 79.28002084 304.45275101 88.61254883 295.3828125 C87.31559082 295.15730713 87.31559082 295.15730713 85.99243164 294.92724609 C50.59609075 288.70820771 17.61439981 280.84296949 -8.38745117 254.3828125 C-9.13510742 253.63386719 -9.88276367 252.88492188 -10.65307617 252.11328125 C-36.48974251 224.69996795 -42.24426129 184.56211818 -41.63745117 148.3828125 C-40.83672146 123.11178295 -31.50667568 96.77181483 -13.52026367 78.484375 C-12.06328602 76.29775998 -12.06328602 76.29775998 -12.93432617 73.17578125 C-13.33135742 71.98597656 -13.72838867 70.79617187 -14.13745117 69.5703125 C-21.07273396 48.37146477 -18.75207979 21.65085848 -9.38745117 1.3828125 C-7.19279399 -0.81184469 -2.94965575 0.0114508 0 0 Z " transform="translate(126.387451171875,35.6171875)"/>
</svg>
