<svg width="170" height="73" viewBox="0 0 170 73" xmlns="http://www.w3.org/2000/svg">
<path d="M18.935 71.9774H10V52.3091H18.5698C22.2224 52.3091 24.4421 54.3602 24.4421 57.3385C24.4421 59.502 23.2901 61.1598 21.4919 61.8903C23.824 62.5928 25.1446 64.2224 25.1446 66.6669C25.1446 69.9262 22.8125 71.9774 18.935 71.9774ZM12.3883 54.5288V60.9912H18.3731C20.5928 60.9912 22.082 59.6987 22.082 57.6757C22.082 55.7651 20.7333 54.5288 18.5136 54.5288H12.3883ZM12.3883 63.0423V69.7296H18.7945C21.1547 69.7296 22.6439 68.4933 22.6439 66.3298C22.6439 63.9696 20.8738 63.0423 18.654 63.0423H12.3883ZM34.0793 71.9774V65.4306L26.8301 52.3091H29.4994L35.2875 62.7052L41.0755 52.3091H43.7448L36.5518 65.4025V71.9774H34.0793ZM65.735 71.9774H56.8V52.3091H65.3698C69.0224 52.3091 71.2421 54.3602 71.2421 57.3385C71.2421 59.502 70.0901 61.1598 68.2919 61.8903C70.624 62.5928 71.9446 64.2224 71.9446 66.6669C71.9446 69.9262 69.6125 71.9774 65.735 71.9774ZM59.1883 54.5288V60.9912H65.1731C67.3928 60.9912 68.8819 59.6987 68.8819 57.6757C68.8819 55.7651 67.5333 54.5288 65.3136 54.5288H59.1883ZM59.1883 63.0423V69.7296H65.5945C67.9547 69.7296 69.4439 68.4933 69.4439 66.3298C69.4439 63.9696 67.6738 63.0423 65.454 63.0423H59.1883ZM85.1479 72.2021C79.5845 72.2021 75.2294 67.6784 75.2294 62.1432C75.2294 56.608 79.6126 52.0843 85.1479 52.0843C90.6269 52.0843 95.0382 56.5799 95.0663 62.1432C95.0663 67.6784 90.6831 72.2021 85.1479 72.2021ZM85.1479 69.87C89.4187 69.87 92.5937 66.414 92.5937 62.1432C92.5937 57.9005 89.4187 54.4164 85.1479 54.4164C80.9051 54.4164 77.702 57.8724 77.702 62.1432C77.702 66.386 80.8489 69.87 85.1479 69.87ZM106.618 72.2021C103.64 72.174 101.139 71.0782 99.0318 69.1395V66.4983C101.392 68.7181 104.089 69.8981 106.759 69.8981C109.203 69.8981 111.479 68.8866 111.479 66.7793C111.479 64.9811 109.962 63.9134 105.775 62.958C101.195 61.8903 98.8913 60.4855 98.8913 57.5914C98.8913 54.023 102.572 52.0562 106.253 52.0562C109.653 52.0562 112.041 53.433 113.333 54.4445V57.0857C111.451 55.5122 108.81 54.3602 106.253 54.3602C103.865 54.3602 101.308 55.4279 101.308 57.5914C101.308 59.6706 104.033 60.2888 107.349 61.0474C112.406 62.2275 113.896 64.2505 113.924 66.7231C113.924 70.4882 110.299 72.2583 106.618 72.2021ZM127.14 72.0898C121.577 72.0898 117.222 67.566 117.222 62.0589C117.222 56.4956 121.605 52 127.14 52C131.242 52 134.586 54.5007 136.103 58.0972L133.743 58.7715C132.591 56.1865 130.231 54.3602 127.14 54.3602C122.869 54.3321 119.694 57.76 119.694 62.0589C119.694 66.2736 122.813 69.7296 127.14 69.7296C130.231 69.7296 132.563 67.9875 133.715 65.3744L136.103 66.0207C134.614 69.561 131.299 72.0898 127.14 72.0898ZM149.344 72.2021C143.781 72.2021 139.426 67.6784 139.426 62.1432C139.426 56.608 143.809 52.0843 149.344 52.0843C154.823 52.0843 159.235 56.5799 159.263 62.1432C159.263 67.6784 154.879 72.2021 149.344 72.2021ZM149.344 69.87C153.615 69.87 156.79 66.414 156.79 62.1432C156.79 57.9005 153.615 54.4164 149.344 54.4164C145.101 54.4164 141.898 57.8724 141.898 62.1432C141.898 66.386 145.045 69.87 149.344 69.87Z"/>
<path d="M0 39.73V0.393365H7.64254V19.7807L24.6135 0.393365H33.9418L17.7576 18.5444L34.3914 39.73H25.063L12.8125 24.1639L7.64254 29.952V39.73H0ZM60.7825 40.1795C49.7121 40.1795 40.777 31.1883 40.777 20.1179C40.777 9.04741 49.7121 0 60.7825 0C71.853 0 80.788 8.99122 80.8442 20.1179C80.9004 31.1883 71.853 40.1795 60.7825 40.1795ZM60.7825 33.0989C67.9755 33.0989 73.2578 27.3108 73.2578 20.1179C73.2578 12.9249 67.9755 7.02439 60.7825 7.02439C53.6457 7.02439 48.3072 12.9249 48.3072 20.1179C48.3072 27.2546 53.5895 33.0989 60.7825 33.0989ZM108.123 39.7861H93.6812V0.337171H108.123C119.307 0.337171 128.242 8.93503 128.298 20.0617C128.354 31.1883 119.475 39.7861 108.123 39.7861ZM101.324 7.41776V32.7056H108.123C115.766 32.7056 120.88 27.1984 120.88 20.0617C120.88 12.7563 115.71 7.41776 108.123 7.41776H101.324ZM169.895 39.73H141.629V0.393365H169.895V7.41776H149.215V16.6338H167.647V23.4896H149.215V32.7056H169.895V39.73Z"/>
</svg>
