<svg width="176" height="96" viewBox="0 0 151 82" fill="none" xmlns="http://www.w3.org/2000/svg">
<path d="M2.95831 46V12.4H9.48631V28.96L23.9823 12.4H31.9503L18.1263 27.904L32.3343 46H24.3663L13.9023 32.704L9.48631 37.648V46H2.95831ZM54.8767 46.384C45.4207 46.384 37.7887 38.704 37.7887 29.248C37.7887 19.792 45.4207 12.064 54.8767 12.064C64.3327 12.064 71.9647 19.744 72.0127 29.248C72.0607 38.704 64.3327 46.384 54.8767 46.384ZM54.8767 40.336C61.0207 40.336 65.5327 35.392 65.5327 29.248C65.5327 23.104 61.0207 18.064 54.8767 18.064C48.7807 18.064 44.2207 23.104 44.2207 29.248C44.2207 35.344 48.7327 40.336 54.8767 40.336ZM95.3137 46.048H82.9777V12.352H95.3137C104.866 12.352 112.498 19.696 112.546 29.2C112.594 38.704 105.01 46.048 95.3137 46.048ZM89.5057 18.4V40H95.3137C101.842 40 106.21 35.296 106.21 29.2C106.21 22.96 101.794 18.4 95.3137 18.4H89.5057ZM148.077 46H123.933V12.4H148.077V18.4H130.413V26.272H146.157V32.128H130.413V40H148.077V46Z"/>
<path d="M19.1588 76.5135H11.5268V59.7135H18.8468C21.9668 59.7135 23.8628 61.4655 23.8628 64.0095C23.8628 65.8575 22.8788 67.2735 21.3428 67.8975C23.3348 68.4975 24.4628 69.8895 24.4628 71.9775C24.4628 74.7615 22.4708 76.5135 19.1588 76.5135ZM13.5668 61.6095V67.1295H18.6788C20.5748 67.1295 21.8468 66.0255 21.8468 64.2975C21.8468 62.6655 20.6948 61.6095 18.7988 61.6095H13.5668ZM13.5668 68.8815V74.5935H19.0388C21.0548 74.5935 22.3268 73.5375 22.3268 71.6895C22.3268 69.6735 20.8148 68.8815 18.9188 68.8815H13.5668ZM32.0945 76.5135V70.9215L25.9025 59.7135H28.1825L33.1265 68.5935L38.0705 59.7135H40.3505L34.2065 70.8975V76.5135H32.0945ZM59.1338 76.5135H51.5018V59.7135H58.8218C61.9418 59.7135 63.8378 61.4655 63.8378 64.0095C63.8378 65.8575 62.8538 67.2735 61.3178 67.8975C63.3098 68.4975 64.4378 69.8895 64.4378 71.9775C64.4378 74.7615 62.4458 76.5135 59.1338 76.5135ZM53.5418 61.6095V67.1295H58.6538C60.5498 67.1295 61.8218 66.0255 61.8218 64.2975C61.8218 62.6655 60.6698 61.6095 58.7738 61.6095H53.5418ZM53.5418 68.8815V74.5935H59.0138C61.0298 74.5935 62.3018 73.5375 62.3018 71.6895C62.3018 69.6735 60.7898 68.8815 58.8938 68.8815H53.5418ZM75.7156 76.7055C70.9636 76.7055 67.2436 72.8415 67.2436 68.1135C67.2436 63.3855 70.9876 59.5215 75.7156 59.5215C80.3956 59.5215 84.1636 63.3615 84.1876 68.1135C84.1876 72.8415 80.4436 76.7055 75.7156 76.7055ZM75.7156 74.7135C79.3636 74.7135 82.0756 71.7615 82.0756 68.1135C82.0756 64.4895 79.3636 61.5135 75.7156 61.5135C72.0916 61.5135 69.3556 64.4655 69.3556 68.1135C69.3556 71.7375 72.0436 74.7135 75.7156 74.7135ZM94.0548 76.7055C91.5108 76.6815 89.3748 75.7455 87.5748 74.0895V71.8335C89.5908 73.7295 91.8948 74.7375 94.1748 74.7375C96.2628 74.7375 98.2068 73.8735 98.2068 72.0735C98.2068 70.5375 96.9108 69.6255 93.3348 68.8095C89.4228 67.8975 87.4548 66.6975 87.4548 64.2255C87.4548 61.1775 90.5988 59.4975 93.7428 59.4975C96.6468 59.4975 98.6868 60.6735 99.7908 61.5375V63.7935C98.1828 62.4495 95.9268 61.4655 93.7428 61.4655C91.7028 61.4655 89.5188 62.3775 89.5188 64.2255C89.5188 66.0015 91.8468 66.5295 94.6788 67.1775C98.9988 68.1855 100.271 69.9135 100.295 72.0255C100.295 75.2415 97.1988 76.7535 94.0548 76.7055ZM111.584 76.6095C106.832 76.6095 103.112 72.7455 103.112 68.0415C103.112 63.2895 106.856 59.4495 111.584 59.4495C115.088 59.4495 117.944 61.5855 119.24 64.6575L117.224 65.2335C116.24 63.0255 114.224 61.4655 111.584 61.4655C107.936 61.4415 105.224 64.3695 105.224 68.0415C105.224 71.6415 107.888 74.5935 111.584 74.5935C114.224 74.5935 116.216 73.1055 117.2 70.8735L119.24 71.4255C117.968 74.4495 115.136 76.6095 111.584 76.6095ZM130.55 76.7055C125.798 76.7055 122.078 72.8415 122.078 68.1135C122.078 63.3855 125.822 59.5215 130.55 59.5215C135.23 59.5215 138.998 63.3615 139.022 68.1135C139.022 72.8415 135.278 76.7055 130.55 76.7055ZM130.55 74.7135C134.198 74.7135 136.91 71.7615 136.91 68.1135C136.91 64.4895 134.198 61.5135 130.55 61.5135C126.926 61.5135 124.19 64.4655 124.19 68.1135C124.19 71.7375 126.878 74.7135 130.55 74.7135Z"/>
</svg>
