<?xml version="1.0" encoding="UTF-8"?>
<svg version="1.1" xmlns="http://www.w3.org/2000/svg" viewBox="0 0 512 512" width="512" height="512">
<path d="M0 0 C1.17731689 0.00491455 2.35463379 0.0098291 3.56762695 0.01489258 C12.9382388 0.14015955 21.67135975 1.02197483 30.75 3.3125 C31.39372559 3.47347168 32.03745117 3.63444336 32.70068359 3.80029297 C66.50518451 12.53459067 95.41541139 35.00654309 113.13598633 64.90283203 C124.46282822 84.4915227 130.17567302 105.91969591 130.0625 128.5625 C130.05758545 129.73981689 130.0526709 130.91713379 130.04760742 132.13012695 C129.92234045 141.5007388 129.04052517 150.23385975 126.75 159.3125 C126.58902832 159.95622559 126.42805664 160.59995117 126.26220703 161.26318359 C117.52790933 195.06768451 95.05595691 223.97791139 65.15966797 241.69848633 C45.5709773 253.02532822 24.14280409 258.73817302 1.5 258.625 C0.32268311 258.62008545 -0.85463379 258.6151709 -2.06762695 258.61010742 C-11.4382388 258.48484045 -20.17135975 257.60302517 -29.25 255.3125 C-29.89372559 255.15152832 -30.53745117 254.99055664 -31.20068359 254.82470703 C-63.26584669 246.53981381 -91.97798344 225.59835068 -109.25 197.3125 C-126.6183024 167.70669063 -133.684497 133.05048798 -125.25 99.3125 C-125.08902832 98.66732422 -124.92805664 98.02214844 -124.76220703 97.35742188 C-116.02631735 63.55515134 -93.55430055 34.64610682 -63.65966797 16.92651367 C-44.0709773 5.59967178 -22.64280409 -0.11317302 0 0 Z " fill="#000000" transform="translate(255.25,126.6875)"/>
<path d="M0 0 C5.21166721 2.90218331 7.86441215 6.71229937 9.75 12.3125 C10.01069641 15.18919373 10.01069641 15.18919373 10.0246582 18.38452148 C10.03895622 20.18680458 10.03895622 20.18680458 10.05354309 22.02549744 C10.05263168 23.31516922 10.05172028 24.604841 10.05078125 25.93359375 C10.05467207 27.2797102 10.05900754 28.62582543 10.06376648 29.97193909 C10.07121321 32.78870632 10.07094867 35.60534817 10.06567383 38.42211914 C10.05988046 42.02112455 10.07681386 45.6196151 10.1000185 49.21853542 C10.11479266 51.99732941 10.11562259 54.77600043 10.11250877 57.55482674 C10.11326769 59.52342624 10.12710976 61.49200674 10.14118958 63.46055603 C10.13496078 64.66523026 10.12873199 65.86990448 10.12231445 67.11108398 C10.12294388 68.16633774 10.1235733 69.22159149 10.1242218 70.30882263 C9.47404127 75.52747244 7.26218715 79.35996991 3.1875 82.625 C2.28837891 83.36169922 2.28837891 83.36169922 1.37109375 84.11328125 C-3.2199931 87.50957923 -8.77424074 86.82203985 -14.25 86.3125 C-19.15713015 83.99276575 -22.0611048 80.59473069 -25.25 76.3125 C-26.30823299 73.13780102 -26.39580866 70.83548158 -26.42700195 67.49926758 C-26.43983719 66.30404984 -26.45267242 65.10883209 -26.46589661 63.87739563 C-26.47328354 62.58367538 -26.48067047 61.28995514 -26.48828125 59.95703125 C-26.49235678 59.29678137 -26.4964323 58.63653149 -26.50063133 57.95627403 C-26.52147721 54.45872691 -26.53578294 50.96121881 -26.54516602 47.46362305 C-26.55620258 43.86691826 -26.59057364 40.2708369 -26.63033772 36.67435169 C-26.65660269 33.89549178 -26.66486671 31.11677789 -26.66844749 28.33780479 C-26.67563307 26.37255892 -26.70203273 24.40741326 -26.72883606 22.44233704 C-26.70976684 14.54902665 -26.24209809 8.35610903 -20.43359375 2.47265625 C-19.85738281 2.11042969 -19.28117188 1.74820312 -18.6875 1.375 C-17.81931641 0.80458984 -17.81931641 0.80458984 -16.93359375 0.22265625 C-11.3849001 -2.77698556 -5.58878378 -2.59068856 0 0 Z " fill="#000000" transform="translate(264.25,425.6875)"/>
<path d="M0 0 C1.8022831 -0.01429802 1.8022831 -0.01429802 3.64097595 -0.02888489 C4.93064774 -0.02797348 6.22031952 -0.02706207 7.54907227 -0.02612305 C8.89518871 -0.03001387 10.24130394 -0.03434934 11.5874176 -0.03910828 C14.40418483 -0.04655501 17.22082669 -0.04629047 20.03759766 -0.04101562 C23.63660306 -0.03522225 27.23509361 -0.05215566 30.83401394 -0.0753603 C33.61280792 -0.09013446 36.39147895 -0.09096439 39.17030525 -0.08785057 C41.13890475 -0.08860949 43.10748525 -0.10245156 45.07603455 -0.11653137 C46.28070877 -0.11030258 47.485383 -0.10407379 48.7265625 -0.09765625 C50.30944313 -0.09860039 50.30944313 -0.09860039 51.92430115 -0.0995636 C57.14295096 0.55061693 60.97544842 2.76247105 64.24047852 6.8371582 C64.97717773 7.7362793 64.97717773 7.7362793 65.72875977 8.65356445 C69.12505775 13.2446513 68.43751837 18.79889894 67.92797852 24.2746582 C65.60824426 29.18178836 62.21020921 32.08576301 57.92797852 35.2746582 C54.75327953 36.3328912 52.4509601 36.42046687 49.11474609 36.45166016 C47.91952835 36.46449539 46.72431061 36.47733063 45.49287415 36.49055481 C44.1991539 36.49794174 42.90543365 36.50532867 41.57250977 36.51293945 C40.58213494 36.51905274 40.58213494 36.51905274 39.57175255 36.52528954 C36.07420543 36.54613541 32.57669732 36.56044114 29.07910156 36.56982422 C25.48239677 36.58086078 21.88631542 36.61523184 18.28983021 36.65499592 C15.51097029 36.68126089 12.7322564 36.68952491 9.95328331 36.6931057 C7.98803743 36.70029127 6.02289178 36.72669094 4.05781555 36.75349426 C-3.83549484 36.73442505 -10.02841246 36.26675629 -15.91186523 30.45825195 C-16.45520508 29.59393555 -16.45520508 29.59393555 -17.00952148 28.7121582 C-17.38979492 28.13336914 -17.77006836 27.55458008 -18.16186523 26.95825195 C-20.3683194 22.87678523 -20.65294498 18.80102042 -20.07202148 14.2746582 C-18.31380204 8.99044433 -15.83770712 5.29680032 -11.07202148 2.2746582 C-7.25198999 0.45832543 -4.2162254 0.01842254 0 0 Z " fill="#000000" transform="translate(444.072021484375,237.725341796875)"/>
<path d="M0 0 C1.19521774 -0.01283524 2.39043549 -0.02567047 3.62187195 -0.03889465 C4.91559219 -0.04628159 6.20931244 -0.05366852 7.54223633 -0.0612793 C8.53261115 -0.06739259 8.53261115 -0.06739259 9.54299355 -0.07362938 C13.04054066 -0.09447526 16.53804877 -0.10878099 20.03564453 -0.11816406 C23.63234932 -0.12920063 27.22843068 -0.16357168 30.82491589 -0.20333576 C33.6037758 -0.22960074 36.38248969 -0.23786476 39.16146278 -0.24144554 C41.12670866 -0.24863111 43.09185432 -0.27503078 45.05693054 -0.30183411 C52.95024093 -0.28276489 59.14315855 0.18490387 65.02661133 5.9934082 C65.56995117 6.85772461 65.56995117 6.85772461 66.12426758 7.73950195 C66.50454102 8.31829102 66.88481445 8.89708008 67.27661133 9.4934082 C69.48306549 13.57487492 69.76769107 17.65063974 69.18676758 22.17700195 C67.42854813 27.46121583 64.95245322 31.15485984 60.18676758 34.17700195 C56.36673608 35.99333473 53.33097149 36.43323761 49.11474609 36.45166016 C47.312463 36.46595818 47.312463 36.46595818 45.47377014 36.48054504 C44.18409836 36.47963364 42.89442657 36.47872223 41.56567383 36.4777832 C40.21955738 36.48167403 38.87344215 36.48600949 37.52732849 36.49076843 C34.71056126 36.49821516 31.89391941 36.49795063 29.07714844 36.49267578 C25.47814303 36.48688241 21.87965248 36.50381581 18.28073215 36.52702045 C15.50193817 36.54179461 12.72326715 36.54262454 9.94444084 36.53951073 C7.97584134 36.54026965 6.00726084 36.55411171 4.03871155 36.56819153 C2.83403732 36.56196274 1.6293631 36.55573395 0.38818359 36.54931641 C-1.19469704 36.55026054 -1.19469704 36.55026054 -2.80955505 36.55122375 C-8.02820487 35.90104323 -11.86070233 33.6891891 -15.12573242 29.61450195 C-15.61686523 29.01508789 -16.10799805 28.41567383 -16.61401367 27.7980957 C-20.01031166 23.20700885 -19.32277227 17.65276122 -18.81323242 12.17700195 C-16.49349817 7.2698718 -13.09546311 4.36589715 -8.81323242 1.17700195 C-5.63853344 0.11876896 -3.336214 0.03119329 0 0 Z " fill="#000000" transform="translate(18.813232421875,237.822998046875)"/>
<path d="M0 0 C4.90713015 2.31973425 7.8111048 5.71776931 11 10 C12.05823299 13.17469898 12.14580866 15.47701842 12.17700195 18.81323242 C12.19625481 20.60605904 12.19625481 20.60605904 12.21589661 22.43510437 C12.22328354 23.72882462 12.23067047 25.02254486 12.23828125 26.35546875 C12.24235678 27.01571863 12.2464323 27.67596851 12.25063133 28.35622597 C12.27147721 31.85377309 12.28578294 35.35128119 12.29516602 38.84887695 C12.30620258 42.44558174 12.34057364 46.0416631 12.38033772 49.63814831 C12.40660269 52.41700822 12.41486671 55.19572211 12.41844749 57.97469521 C12.42563307 59.93994108 12.45203273 61.90508674 12.47883606 63.87016296 C12.45976684 71.76347335 11.99209809 77.95639097 6.18359375 83.83984375 C5.31927734 84.38318359 5.31927734 84.38318359 4.4375 84.9375 C3.85871094 85.31777344 3.27992188 85.69804688 2.68359375 86.08984375 C-1.39787297 88.29629792 -5.47363779 88.58092349 -10 88 C-15.28421388 86.24178055 -18.97785789 83.76568564 -22 79 C-23.81633278 75.1799685 -24.25623566 72.14420391 -24.2746582 67.92797852 C-24.28419022 66.72645645 -24.29372223 65.52493439 -24.30354309 64.28700256 C-24.30263168 62.99733078 -24.30172028 61.707659 -24.30078125 60.37890625 C-24.30467207 59.0327898 -24.30900754 57.68667457 -24.31376648 56.34056091 C-24.32121321 53.52379368 -24.32094867 50.70715183 -24.31567383 47.89038086 C-24.30988046 44.29137545 -24.32681386 40.6928849 -24.3500185 37.09396458 C-24.36479266 34.31517059 -24.36562259 31.53649957 -24.36250877 28.75767326 C-24.36326769 26.78907376 -24.37710976 24.82049326 -24.39118958 22.85194397 C-24.38496078 21.64726974 -24.37873199 20.44259552 -24.37231445 19.20141602 C-24.37294388 18.14616226 -24.3735733 17.09090851 -24.3742218 16.00367737 C-23.72404127 10.78502756 -21.51218715 6.95253009 -17.4375 3.6875 C-16.83808594 3.19636719 -16.23867187 2.70523437 -15.62109375 2.19921875 C-11.0300069 -1.19707923 -5.47575926 -0.50953985 0 0 Z " fill="#000000" transform="translate(262,0)"/>
<path d="M0 0 C0.90105469 -0.04898437 1.80210937 -0.09796875 2.73046875 -0.1484375 C11.05267403 1.26496618 17.10056254 8.22027452 22.80078125 13.96484375 C24.03830391 15.19806114 24.03830391 15.19806114 25.30082703 16.45619202 C27.03309661 18.18643002 28.76162328 19.92042266 30.48657227 21.65795898 C33.12383186 24.31132473 35.7767693 26.94825345 38.43164062 29.58398438 C40.11815057 31.27247611 41.80373001 32.96189788 43.48828125 34.65234375 C44.27890457 35.43689438 45.06952789 36.22144501 45.8841095 37.0297699 C50.37368891 41.57713247 54.26972617 45.58622584 55.2109375 52.15625 C55.15766877 58.33542325 54.98880976 63.1900118 50.3828125 67.80859375 C46.24652938 71.44070306 43.02518932 72.55196767 37.625 72.75 C36.72394531 72.79898438 35.82289063 72.84796875 34.89453125 72.8984375 C26.57232597 71.48503382 20.52443746 64.52972548 14.82421875 58.78515625 C13.99920364 57.96301132 13.17418854 57.14086639 12.32417297 56.29380798 C10.59190339 54.56356998 8.86337672 52.82957734 7.13842773 51.09204102 C4.50116814 48.43867527 1.8482307 45.80174655 -0.80664062 43.16601562 C-2.49315057 41.47752389 -4.17873001 39.78810212 -5.86328125 38.09765625 C-6.65390457 37.31310562 -7.44452789 36.52855499 -8.2591095 35.7202301 C-12.74868891 31.17286753 -16.64472617 27.16377416 -17.5859375 20.59375 C-17.53266877 14.41457675 -17.36380976 9.5599882 -12.7578125 4.94140625 C-8.62152938 1.30929694 -5.40018932 0.19803233 0 0 Z " fill="#000000" transform="translate(387.1875,369.625)"/>
<path d="M0 0 C4.39501144 3.96622984 7.31752403 7.42715906 8.5625 13.3125 C8.70077164 21.85461474 5.28903578 26.64336666 -0.48413086 32.63378906 C-2.11793766 34.28745012 -3.75768639 35.93525504 -5.40234375 37.578125 C-6.27266739 38.45273376 -7.14299103 39.32734253 -8.03968811 40.22845459 C-9.87539174 42.06988583 -11.71370106 43.90872272 -13.55444336 45.74511719 C-16.37045642 48.55796153 -19.17286441 51.38388962 -21.97460938 54.2109375 C-23.76220991 56.00081026 -25.55059495 57.78989993 -27.33984375 59.578125 C-28.17644028 60.42393127 -29.0130368 61.26973755 -29.87498474 62.14117432 C-30.6625264 62.92248718 -31.45006805 63.70380005 -32.26147461 64.50878906 C-32.94890244 65.19684631 -33.63633026 65.88490356 -34.34458923 66.59381104 C-39.02392396 70.43645979 -43.78799363 70.81786268 -49.6484375 70.68359375 C-54.9142787 69.98295662 -58.59146753 67.71809471 -61.81640625 63.515625 C-64.56375831 58.72929737 -65.47523278 53.75358538 -64.4375 48.3125 C-62.57276477 44.11174795 -60.55847342 41.05595769 -57.32080078 37.80761719 C-56.49629425 36.97365417 -55.67178772 36.13969116 -54.82229614 35.28045654 C-53.93476654 34.39899963 -53.04723694 33.51754272 -52.1328125 32.609375 C-51.21668182 31.69037415 -50.30055115 30.77137329 -49.35665894 29.82452393 C-47.4231088 27.88656697 -45.48427811 25.95409915 -43.54150391 24.02539062 C-41.05760157 21.55860319 -38.58744488 19.07855729 -36.1210804 16.59424973 C-33.75727278 14.21697114 -31.38207397 11.85121356 -29.0078125 9.484375 C-28.12433136 8.59482117 -27.24085022 7.70526733 -26.33059692 6.78875732 C-25.49978607 5.96740295 -24.66897522 5.14604858 -23.81298828 4.29980469 C-23.08701447 3.57621765 -22.36104065 2.85263062 -21.61306763 2.1071167 C-15.51316133 -2.92467067 -6.97713161 -3.42513733 0 0 Z " fill="#000000" transform="translate(133.4375,371.6875)"/>
<path d="M0 0 C4.39561435 2.4447518 7.06119522 5.34909665 9.02734375 9.98046875 C10.91056269 16.58950124 9.9300253 21.2056618 6.6484375 27.16015625 C4.72683716 29.46270752 4.72683716 29.46270752 2.53173828 31.66503906 C1.70723175 32.49900208 0.88272522 33.33296509 0.03323364 34.19219971 C-0.85429596 35.07365662 -1.74182556 35.95511353 -2.65625 36.86328125 C-3.57238068 37.7822821 -4.48851135 38.70128296 -5.43240356 39.64813232 C-7.3659537 41.58608928 -9.30478439 43.5185571 -11.24755859 45.44726562 C-13.73146093 47.91405306 -16.20161762 50.39409896 -18.6679821 52.87840652 C-21.03178972 55.25568511 -23.40698853 57.62144269 -25.78125 59.98828125 C-27.10647171 61.322612 -27.10647171 61.322612 -28.45846558 62.68389893 C-29.28927643 63.5052533 -30.12008728 64.32660767 -30.97607422 65.17285156 C-31.70204803 65.8964386 -32.42802185 66.62002563 -33.17599487 67.36553955 C-37.96639747 71.31712276 -42.69510368 71.59753445 -48.6953125 71.4765625 C-53.66935408 70.88406637 -56.27908535 68.29221547 -59.6015625 64.78515625 C-63.04479295 59.62031058 -63.57737452 55.5331209 -63.03125 49.50390625 C-60.9290011 42.2547721 -54.5508792 37.05307932 -49.38671875 31.89453125 C-48.51639511 31.01992249 -47.64607147 30.14531372 -46.74937439 29.24420166 C-44.91367076 27.40277042 -43.07536144 25.56393353 -41.23461914 23.72753906 C-38.41860608 20.91469472 -35.61619809 18.08876663 -32.81445312 15.26171875 C-31.02685259 13.47184599 -29.23846755 11.68275632 -27.44921875 9.89453125 C-26.61262222 9.04872498 -25.7760257 8.2029187 -24.91407776 7.33148193 C-23.73276527 6.15951263 -23.73276527 6.15951263 -22.52758789 4.96386719 C-21.84016006 4.27580994 -21.15273224 3.58775269 -20.44447327 2.87884521 C-14.75584904 -1.79262757 -6.84330999 -2.44403928 0 0 Z " fill="#000000" transform="translate(433.3515625,70.83984375)"/>
<path d="M0 0 C4.99221255 2.96511704 8.77934504 6.92239699 12.87036133 11.01245117 C13.76479446 11.89927078 14.6592276 12.78609039 15.58076477 13.69978333 C17.46651633 15.57474758 19.34868224 17.45266746 21.22607422 19.3359375 C23.61992322 21.73567868 26.03150517 24.11667276 28.4484129 26.49315929 C30.76722335 28.7797423 33.06766899 31.08465479 35.37036133 33.38745117 C36.2328801 34.23357468 37.09539886 35.07969818 37.98405457 35.95146179 C43.27984285 41.30875278 46.97875658 45.80378429 47.63598633 53.57104492 C46.78494502 59.9718345 44.74251114 63.93708884 39.85864258 68.34448242 C36.27023961 70.8287614 33.38095367 71.23220869 29.10864258 71.34448242 C28.18438477 71.38186523 27.26012695 71.41924805 26.30786133 71.45776367 C18.67004731 70.33121194 13.12008455 63.03720147 7.93676758 57.84838867 C7.03996277 56.95586899 6.14315796 56.0633493 5.21917725 55.14378357 C3.33061443 53.26094935 1.44432015 51.37612168 -0.4387207 49.48779297 C-2.84667803 47.07402449 -5.26585199 44.67185471 -7.68825912 42.27259922 C-10.00768748 39.97146918 -12.31608305 37.6593274 -14.62573242 35.34838867 C-15.49341248 34.48991837 -16.36109253 33.63144806 -17.25506592 32.7469635 C-18.05639954 31.93940109 -18.85773315 31.13183868 -19.68334961 30.29980469 C-20.38917175 29.59461197 -21.0949939 28.88941925 -21.82220459 28.16285706 C-25.32497443 23.91388806 -26.04387035 19.72491413 -25.88354492 14.37182617 C-25.25022493 9.50825342 -23.44320615 5.83930401 -19.91870117 2.42260742 C-13.96813086 -1.92729613 -6.88120635 -2.58297673 0 0 Z " fill="#000000" transform="translate(94.578857421875,70.968017578125)"/>
</svg>
